# xmcd
#
# Track frame offsets:
#      150
#      30937
#      51012
#      73425
#      100425
#      123100
#      145937
#      166562
#      183787
#      199837
#      221837
# 
# Disc length: 3320 seconds
#
# Revision: 2
# Processed by: cddbd v1.5PL3 Copyright (c) Steve Scherf et al.
#
# Submitted via: FreeRIP 1.21
#
DISCID=990cf60b
DTITLE=新寶島康樂隊 - 新寶島康樂隊第三輯
DYEAR=1995
DGENRE=Folk/Rock
TTITLE0=歡聚歌
TTITLE1=HOTELU大旅社
TTITLE2=M.B.T.Lovers
TTITLE3=日出
TTITLE4=虫憲公勿語
TTITLE5=淒美燈塔
TTITLE6=錯愛
TTITLE7=寶島戀歌
TTITLE8=無緣
TTITLE9=共下飛
TTITLE10=愛與死
EXTD=
EXTT0=
EXTT1=
EXTT2=
EXTT3=
EXTT4=
EXTT5=
EXTT6=
EXTT7=
EXTT8=
EXTT9=
EXTT10=
PLAYORDER=
